<?xml version="1.0" standalone="no"?>
<!DOCTYPE svg PUBLIC "-//W3C//DTD SVG 20010904//EN"
 "http://www.w3.org/TR/2001/REC-SVG-20010904/DTD/svg10.dtd">
<svg version="1.0" xmlns="http://www.w3.org/2000/svg"
 width="500.000000pt" height="500.000000pt" viewBox="0 0 500.000000 500.000000"
 preserveAspectRatio="xMidYMid meet">
<metadata>
Created by potrace 1.14, written by Peter Selinger 2001-2017
</metadata>
<g transform="translate(0.000000,500.000000) scale(0.100000,-0.100000)"
fill="#000000" stroke="none">
<path d="M0 2500 l0 -2500 2500 0 2500 0 0 2500 0 2500 -2500 0 -2500 0 0
-2500z m1299 910 c215 -302 393 -550 395 -550 2 0 54 70 115 156 l112 156 -76
106 c-41 59 -166 235 -278 392 l-204 285 1605 3 c883 1 1607 0 1609 -2 2 -2
-189 -274 -424 -604 l-428 -602 -375 1 -375 0 -135 190 c-74 105 -136 195
-138 200 -2 5 164 9 406 9 l409 0 146 205 146 205 -835 0 -835 0 22 -32 c53
-76 994 -1397 1025 -1439 l34 -46 -120 -168 c-66 -93 -122 -170 -124 -172 -2
-3 -183 248 -402 556 -220 308 -402 560 -405 561 -4 0 -57 -70 -118 -155
l-111 -155 401 -561 c220 -309 399 -567 397 -574 -4 -14 -231 -335 -238 -335
-5 1 -2055 2874 -2073 2906 -7 12 30 14 236 14 l244 0 392 -550z"/>
</g>
</svg>
